<svg id="Layer_1" data-name="Layer 1" xmlns="http://www.w3.org/2000/svg" viewBox="0 0 15.34 9.54"><title>Dropdown icon</title><path d="M12.72,7.45A1,1,0,0,1,12,7.19,1,1,0,0,1,12,5.73l1.91-2.15a1,1,0,0,1,1.46-.09A1,1,0,0,1,15.41,5L13.5,7.11A1,1,0,0,1,12.72,7.45Z" transform="translate(-0.33 -3.23)"/><path d="M8,12.77a1,1,0,0,1-.77-.35L.59,5A1,1,0,0,1,.68,3.49a1,1,0,0,1,1.46.09L8,10.17,9.7,8.26a1,1,0,0,1,1.46-.09,1,1,0,0,1,.09,1.47L8.77,12.42A1,1,0,0,1,8,12.77Z" transform="translate(-0.33 -3.23)"/></svg>